<svg class="gf" viewBox="0 0 720 340" xmlns="http://www.w3.org/2000/svg" role="img" aria-label="60 ms zoom around the rising zero crossing at t = 1 s: the filter output crosses zero 7.5 milliseconds after the body motion, and carries a small residual ripple." tabindex="0" data-hover='{"x0":56,"w":552,"top":86,"bottom":306,"t":[0.97,0.971,0.972,0.973,0.974,0.975,0.976,0.977,0.978,0.979,0.98,0.981,0.982,0.983,0.984,0.985,0.986,0.987,0.988,0.989,0.99,0.991,0.992,0.993,0.994,0.995,0.996,0.997,0.998,0.999,1,1.001,1.002,1.003,1.004,1.005,1.006,1.007,1.008,1.009,1.01,1.011,1.012,1.013,1.014,1.015,1.016,1.017,1.018,1.019,1.02,1.021,1.022,1.023,1.024,1.025,1.026,1.027,1.028,1.029,1.03],"series":[{"name":"gyro input","key":"input","panel":0,"v":[-0.3604,-0.4729,-0.2469,0.0647,0.111,-0.1545,-0.42,-0.3737,-0.0619,0.1643,0.052,-0.2628,-0.4115,-0.2164,0.1055,0.1916,-0.0499,-0.3346,-0.3284,-0.0313,0.2226,0.1489,-0.1606,-0.3433,-0.1822,0.1449,0.2696,0.0558,-0.2437,-0.2777,0,0.2777,0.2437,-0.0558,-0.2696,-0.1449,0.1822,0.3433,0.1606,-0.1489,-0.2226,0.0313,0.3284,0.3346,0.0499,-0.1916,-0.1055,0.2164,0.4115,0.2628,-0.052,-0.1643,0.0619,0.3737,0.42,0.1545,-0.111,-0.0647,0.2469,0.4729,0.3604]},{"name":"body motion","key":"motion","panel":0,"v":[-0.1841,-0.1782,-0.1723,-0.1664,-0.1605,-0.1545,-0.1485,-0.1425,-0.1365,-0.1304,-0.1243,-0.1182,-0.1121,-0.106,-0.0999,-0.0937,-0.0875,-0.0813,-0.0751,-0.0689,-0.0627,-0.0564,-0.0502,-0.0439,-0.0377,-0.0314,-0.0251,-0.0188,-0.0126,-0.0063,0,0.0063,0.0126,0.0188,0.0251,0.0314,0.0377,0.0439,0.0502,0.0564,0.0627,0.0689,0.0751,0.0813,0.0875,0.0937,0.0999,0.106,0.1121,0.1182,0.1243,0.1304,0.1365,0.1425,0.1485,0.1545,0.1605,0.1664,0.1723,0.1782,0.1841]},{"name":"filter output","key":"output","panel":0,"v":[-0.222,-0.2152,-0.2154,-0.2159,-0.2096,-0.1971,-0.1863,-0.1828,-0.1841,-0.1819,-0.172,-0.159,-0.151,-0.1504,-0.1509,-0.1452,-0.1328,-0.1211,-0.1165,-0.1173,-0.1156,-0.1063,-0.093,-0.084,-0.0825,-0.0831,-0.0781,-0.066,-0.0536,-0.048,-0.0484,-0.0472,-0.0386,-0.0252,-0.0153,-0.013,-0.0137,-0.0095,0.0021,0.015,0.0215,0.0215,0.0221,0.0298,0.0431,0.0537,0.0568,0.0559,0.0593,0.0702,0.0832,0.0906,0.0909,0.0909,0.0977,0.1105,0.1217,0.1255,0.1245,0.1268,0.1369]}]}'>
<style>
.gf { color-scheme: light;
  --surface: #fcfcfb; --ink: #0b0b0b; --ink2: #52514e; --muted: #898781;
  --grid: #e1e0d9; --axis: #c3c2b7; --border: rgba(11,11,11,0.10);
  --motion: #2a78d6; --output: #1baf7a; --vib: #eb6834; --input: #8d8b85;
  font-family: system-ui, -apple-system, "Segoe UI", sans-serif; }
@media (prefers-color-scheme: dark) { :root:where(:not([data-theme="light"])) .gf { color-scheme: dark;
  --surface: #1a1a19; --ink: #ffffff; --ink2: #c3c2b7; --muted: #898781;
  --grid: #2c2c2a; --axis: #383835; --border: rgba(255,255,255,0.10);
  --motion: #3987e5; --output: #199e70; --vib: #d95926; --input: #8a887f; } }
:root[data-theme="dark"] .gf { color-scheme: dark;
  --surface: #1a1a19; --ink: #ffffff; --ink2: #c3c2b7; --muted: #898781;
  --grid: #2c2c2a; --axis: #383835; --border: rgba(255,255,255,0.10);
  --motion: #3987e5; --output: #199e70; --vib: #d95926; --input: #8a887f; }
.gf .surface { fill: var(--surface); stroke: var(--border); }
.gf .grid { stroke: var(--grid); stroke-width: 1; }
.gf .axis { stroke: var(--axis); stroke-width: 1; }
.gf .tick { fill: var(--muted); font-size: 11px; font-variant-numeric: tabular-nums; }
.gf .title { fill: var(--ink); font-size: 14px; font-weight: 600; }
.gf .sub { fill: var(--ink2); font-size: 12px; }
.gf .label { fill: var(--ink2); font-size: 12px; }
.gf .note { fill: var(--ink); font-size: 12px; font-weight: 600; }
.gf .line { fill: none; stroke-width: 2; stroke-linejoin: round; stroke-linecap: round; }
.gf .line.thin { stroke-width: 1.25; }
.gf .s-motion { stroke: var(--motion); } .gf .k-motion { fill: var(--motion); }
.gf .s-output { stroke: var(--output); } .gf .k-output { fill: var(--output); }
.gf .s-vib { stroke: var(--vib); }       .gf .k-vib { fill: var(--vib); }
.gf .s-input { stroke: var(--input); }   .gf .k-input { fill: var(--input); }
.gf .bracket { stroke: var(--ink); stroke-width: 1.5; fill: none; }
.gf .dot { stroke: var(--surface); stroke-width: 2; }
.gf .xhair { stroke: var(--ink2); stroke-width: 1; visibility: hidden; }
.gf .tip .bg { fill: var(--surface); stroke: var(--border); }
.gf .tip text { fill: var(--ink); font-size: 12px; font-variant-numeric: tabular-nums; }
.gf .tip { visibility: hidden; }
.gf:focus { outline: 2px solid var(--motion); outline-offset: 2px; }
</style>
<rect class="surface" x="0.5" y="0.5" width="719" height="339" rx="8"/>
<text class="title" x="56" y="22">The output lags the motion by 7.5 ms</text>
<text class="sub" x="56" y="40">phase -5.4° at 2 Hz; residual 180 Hz ripple is 2.2% of the vibration</text>
<rect class="k-input" x="56" y="55" width="14" height="3" rx="1.5"/><text class="label" x="76" y="60">gyro input</text><rect class="k-motion" x="150" y="55" width="14" height="3" rx="1.5"/><text class="label" x="170" y="60">body motion (truth)</text><rect class="k-output" x="303.4" y="55" width="14" height="3" rx="1.5"/><text class="label" x="323.4" y="60">filter output</text>
<line class="grid" x1="56" x2="608" y1="306.0" y2="306.0"/><text class="tick" x="48" y="310.0" text-anchor="end">-0.5</text><line class="grid" x1="56" x2="608" y1="251.0" y2="251.0"/><text class="tick" x="48" y="255.0" text-anchor="end">-0.3</text><line class="axis" x1="56" x2="608" y1="196.0" y2="196.0"/><text class="tick" x="48" y="200.0" text-anchor="end">0.0</text><line class="grid" x1="56" x2="608" y1="141.0" y2="141.0"/><text class="tick" x="48" y="145.0" text-anchor="end">0.3</text><line class="grid" x1="56" x2="608" y1="86.0" y2="86.0"/><text class="tick" x="48" y="90.0" text-anchor="end">0.5</text><path class="line s-input thin" d="M56.0,275.3L65.2,300.0L74.4,250.3L83.6,181.8L92.8,171.6L102.0,230.0L111.2,288.4L120.4,278.2L129.6,209.6L138.8,159.9L148.0,184.6L157.2,253.8L166.4,286.5L175.6,243.6L184.8,172.8L194.0,153.8L203.2,207.0L212.4,269.6L221.6,268.3L230.8,202.9L240.0,147.0L249.2,163.2L258.4,231.3L267.6,271.5L276.8,236.1L286.0,164.1L295.2,136.7L304.4,183.7L313.6,249.6L322.8,257.1L332.0,196.0L341.2,134.9L350.4,142.4L359.6,208.3L368.8,255.3L378.0,227.9L387.2,155.9L396.4,120.5L405.6,160.7L414.8,228.8L424.0,245.0L433.2,189.1L442.4,123.7L451.6,122.4L460.8,185.0L470.0,238.2L479.2,219.2L488.4,148.4L497.6,105.5L506.8,138.2L516.0,207.4L525.2,232.1L534.4,182.4L543.6,113.8L552.8,103.6L562.0,162.0L571.2,220.4L580.4,210.2L589.6,141.7L598.8,92.0L608.0,116.7"/><rect class="k-input" x="616" y="115.7" width="12" height="2" rx="1"/><text class="label" x="632" y="120.7">gyro input</text><path class="line s-motion" d="M56.0,236.5L65.2,235.2L74.4,233.9L83.6,232.6L92.8,231.3L102.0,230.0L111.2,228.7L120.4,227.4L129.6,226.0L138.8,224.7L148.0,223.4L157.2,222.0L166.4,220.7L175.6,219.3L184.8,218.0L194.0,216.6L203.2,215.3L212.4,213.9L221.6,212.5L230.8,211.2L240.0,209.8L249.2,208.4L258.4,207.0L267.6,205.7L276.8,204.3L286.0,202.9L295.2,201.5L304.4,200.1L313.6,198.8L322.8,197.4L332.0,196.0L341.2,194.6L350.4,193.2L359.6,191.9L368.8,190.5L378.0,189.1L387.2,187.7L396.4,186.3L405.6,185.0L414.8,183.6L424.0,182.2L433.2,180.8L442.4,179.5L451.6,178.1L460.8,176.7L470.0,175.4L479.2,174.0L488.4,172.7L497.6,171.3L506.8,170.0L516.0,168.6L525.2,167.3L534.4,166.0L543.6,164.6L552.8,163.3L562.0,162.0L571.2,160.7L580.4,159.4L589.6,158.1L598.8,156.8L608.0,155.5"/><rect class="k-motion" x="616" y="146.5" width="12" height="2" rx="1"/><text class="label" x="632" y="151.5">body motion</text><path class="line s-output" d="M56.0,244.8L65.2,243.3L74.4,243.4L83.6,243.5L92.8,242.1L102.0,239.4L111.2,237.0L120.4,236.2L129.6,236.5L138.8,236.0L148.0,233.8L157.2,231.0L166.4,229.2L175.6,229.1L184.8,229.2L194.0,227.9L203.2,225.2L212.4,222.6L221.6,221.6L230.8,221.8L240.0,221.4L249.2,219.4L258.4,216.5L267.6,214.5L276.8,214.1L286.0,214.3L295.2,213.2L304.4,210.5L313.6,207.8L322.8,206.6L332.0,206.6L341.2,206.4L350.4,204.5L359.6,201.6L368.8,199.4L378.0,198.9L387.2,199.0L396.4,198.1L405.6,195.5L414.8,192.7L424.0,191.3L433.2,191.3L442.4,191.1L451.6,189.4L460.8,186.5L470.0,184.2L479.2,183.5L488.4,183.7L497.6,183.0L506.8,180.6L516.0,177.7L525.2,176.1L534.4,176.0L543.6,176.0L552.8,174.5L562.0,171.7L571.2,169.2L580.4,168.4L589.6,168.6L598.8,168.1L608.0,165.9"/><rect class="k-output" x="616" y="172.9" width="12" height="2" rx="1"/><text class="label" x="632" y="177.9">filter output</text><circle class="dot k-motion" cx="332.0" cy="196.0" r="4.5"/><circle class="dot k-output" cx="400.9" cy="196.0" r="4.5"/><path class="bracket" d="M332.0,204.0V268.6M400.9,204.0V268.6M332.0,264.6H400.9"/><text class="note" x="366.5" y="284.6" text-anchor="middle">7.5 ms delay</text><text class="tick" x="56.0" y="324" text-anchor="middle">0</text><text class="tick" x="148.0" y="324" text-anchor="middle">10</text><text class="tick" x="240.0" y="324" text-anchor="middle">20</text><text class="tick" x="332.0" y="324" text-anchor="middle">30</text><text class="tick" x="424.0" y="324" text-anchor="middle">40</text><text class="tick" x="516.0" y="324" text-anchor="middle">50</text><text class="tick" x="608.0" y="324" text-anchor="middle">60</text><text class="tick" x="608" y="336" text-anchor="end">time from 0.97 s [ms]</text><text class="tick" x="48" y="78" text-anchor="end">rad/s</text>
<line class="xhair" x1="0" x2="0" y1="86" y2="306"/>
<g class="tip"><rect class="bg" rx="4"/></g>
</svg>
